<?xml version="1.0" encoding="UTF-8"?>
<!DOCTYPE svg PUBLIC "-//W3C//DTD SVG 1.1//EN" "http://www.w3.org/Graphics/SVG/1.1/DTD/svg11.dtd">
<!-- Creator: CorelDRAW 2020 (64-Bit Evaluation Version) -->
<svg xmlns="http://www.w3.org/2000/svg" xml:space="preserve" width="106mm" height="100mm" version="1.1" style="shape-rendering:geometricPrecision; text-rendering:geometricPrecision; image-rendering:optimizeQuality; fill-rule:evenodd; clip-rule:evenodd"
viewBox="0 0 10600 10000"
 xmlns:xlink="http://www.w3.org/1999/xlink"
 xmlns:xodm="http://www.corel.com/coreldraw/odm/2003">
 <defs>
  <style type="text/css">
   <![CDATA[
    .fil2 {fill:#30690B}
    .fil1 {fill:#499C11}
    .fil4 {fill:#624C2A}
    .fil7 {fill:#90C15C}
    .fil8 {fill:#B8D19C}
    .fil0 {fill:#F8F8F5}
    .fil6 {fill:#FE6E41}
    .fil5 {fill:#FF3D00}
    .fil3 {fill:url(#id0)}
   ]]>
  </style>
  <linearGradient id="id0" gradientUnits="userSpaceOnUse" x1="5310.05" y1="7453.81" x2="5096.52" y2="3163.36">
   <stop offset="0" style="stop-opacity:1; stop-color:#173305"/>
   <stop offset="1" style="stop-opacity:1; stop-color:#448F13"/>
  </linearGradient>
 </defs>
 <g id="Layer_x0020_1">
  <metadata id="CorelCorpID_0Corel-Layer"/>
  <path class="fil0" d="M5815.3 8775.76c-25.5,-80.99 14.61,-95.7 53.21,-142.63 145.93,-177.43 437.1,-958.52 500.63,-983.88 83.01,0.55 92.06,67.63 125.01,143.11l328.5 738.21c59.05,124.71 63.98,93.44 118.08,149.48 148.84,154.18 -312.01,120.6 -349.33,94.14 -35.16,-61.47 17.26,-76.27 29.12,-113.58 9.25,-29.08 -19.07,-97.65 -31.3,-127.23 -27.24,-65.83 -67.79,-173.86 -101.18,-227.27 -366.05,-6.2 -259.54,-49.84 -380.61,190.11 -87.38,173.19 -13.25,172.62 22.29,201.48 7.98,101.78 -27.95,98.99 -119.92,98.19 -78.74,-0.68 -136.71,10.82 -194.5,-20.13zm1406.02 -354.55c-29.7,22.53 -258.29,5.39 -315.17,1.52 -32.62,-97.9 20.02,-68.88 47.73,-146.88 35.85,-100.9 22.01,-584.8 22.01,-713.71 0,-141.11 -38.75,-53.75 -63.08,-128 -20.22,-61.73 37.83,-81.01 90.34,-81.01l399.97 0c472.95,0 456.84,456.34 201.53,533.33 13.7,23.7 3.31,6.6 17.6,24.6l40.48 46.5c53.02,67.97 72.62,155.86 99.8,239.19 52.64,161.35 56.59,88.41 89.95,141.64 46.92,74.86 -37.89,93.49 -97.86,93.49 -110.81,0 -141.97,-3.59 -173.77,-102.02 -42.53,-131.66 -66.15,-336.7 -159.69,-373.85 -65.47,-26.01 -173.54,-15.12 -251.44,-15.16 -1.67,75.86 -14.69,310.61 17.71,358.29 23.63,34.77 88.17,52.04 33.89,122.07zm-3878.24 -56.42c32.63,141.04 -342.83,62.68 -343.48,62.43 -55.09,-193.18 66.09,55.5 80.79,-343.89l7.83 -545.43c0,-89 -23.39,-60.82 -43.21,-104.71 -60.12,-133.16 174.16,-88.76 297.88,-86.52 160.63,2.91 328.51,5.87 429.91,100.45 103.4,96.45 129.65,273.36 31.24,394.61 -112.34,138.42 -367.43,130.88 -539.44,138.61 -3.09,76.27 -26.99,283.43 30.27,332.92 32.45,28.06 37.17,3.76 48.21,51.53zm3767.39 -6025.98c659.06,5.83 1156.63,500.02 1294.09,1045.96 86,341.55 36.7,697.32 -102.86,979.68 -89.15,180.39 -401.74,572.65 -535.43,623.78 -8.85,20.88 13.88,17.2 -26.16,14.29 -15.15,40.62 -97.62,78.9 -138.14,103.4 -138.85,83.95 -343.51,161.15 -509.74,192.58 -124.87,23.6 -820.48,56.08 -898.36,4.71 -114.52,24.61 -292.54,-31.21 -396.63,-2.95l-4.38 2174.69c73.55,26.81 234.83,-11.86 285.87,29.97 83.02,68.02 -28.76,167.94 -55.98,204.33 -67.46,90.19 -252.78,784.09 -295.67,940.44 -70.82,258.2 -154.63,728.38 -282.33,216.87l-203.07 -745c-65.58,137.44 -248.45,941.91 -295.19,967.8 -117.48,13.6 -101.79,-79.86 -134.88,-184.09l-220.89 -724.57c-28.96,-97.59 -114.07,-412.75 -151.46,-479.3 -17.33,-30.85 -150.63,-144.54 -44.51,-202.34 36.78,-20.04 250.67,-10.28 311.09,-13.68 0.85,-184.26 12.07,-2733.65 -4.01,-2794.3 -10.21,-38.5 -71.52,-98.78 -102.17,-131.1 -82.1,-86.56 -229.35,-302.56 -279.88,-398.27 -80.81,-9.73 -127.51,28.03 -159.03,72.8 -32.47,46.11 -64.15,76.58 -98.62,119.98 -159.65,201.02 -713.65,433.49 -963.01,298.73 15.46,-239.61 179.29,-563.03 396.28,-683.28 114.11,-63.24 316.03,-100.55 458.55,-49.25 152.43,54.86 199.57,164.98 335.38,208.43 -16.5,-65.23 -44.41,-121.33 -65.95,-186.88 -10.59,-32.24 -18.96,-62.23 -27.32,-93.72l-22.96 -82.82c-0.41,-4.03 -1.8,-5.35 -3.04,-7.87 -106.61,-117.11 -349.68,-16.4 -476.67,21.75 -374.49,112.5 -635.21,53.17 -958.22,-118.59 -146.53,-77.91 -217,-167.99 -307.79,-268.31 84.28,-99.05 263.49,-240.83 402.89,-318.42 181.47,-101 321.82,-157.99 566.34,-110.98 349.48,67.19 625.53,386.85 728.68,711.46 22.15,17.89 -3.02,6.06 32.26,6.07 -30.03,-249.9 -16.14,-386.65 -8.77,-633.6 -97.88,-35.92 -141.86,-68.16 -276.97,-86.24 -119.58,-15.99 -189.8,-31.89 -288.4,-75.73 -212.28,-94.39 -299.35,-165.52 -412.04,-315.3 -204.79,-272.18 -314.03,-765.26 -213.02,-1163.82 248.11,14.52 347.66,16.83 553.25,121.36 163.23,83 275.36,178.16 381.13,285 473.23,478.03 275.52,799.15 304.42,994.91 57.66,-198.24 146,-404.53 252.06,-562.82l179.11 -233.21c240.66,-272.21 886.48,-738.87 1258.49,-774.88 20.36,221.03 11.94,394.65 -35.8,604.62 -56.82,249.86 -129.24,380.1 -158.99,499.45l1418.45 -1.74zm-4152.12 -932.69c-55.9,18.43 -257.39,179.74 -315.9,231.78l-282.88 262.64c-429.35,457.22 -761.23,923.28 -988.12,1545.02 -222.73,610.35 -304.9,1231.16 -244.71,1897.31 76.1,842.24 408.95,1555.96 791.8,2104.54 140.23,200.93 487.68,595.51 699.51,754.6 67.4,50.62 129.12,110.3 200.2,163.18 145.1,107.96 522.73,358.45 671.41,407.45 18.6,-0.41 13.93,-5.19 15.67,12.41l8.95 1.28 -12.73 -22.85c-20.07,-80.3 27.49,-90.06 70.7,-147.76 67.09,-89.56 333.2,-668.11 390.32,-796.79 57.87,-130.36 102.23,-289.21 201.45,-72.29 56.56,123.68 347.05,825.32 421.81,899.53 19.39,19.24 45.25,29.5 57.19,53.65 45.26,91.57 -85.9,90.76 -136.53,89.37 -44.18,-1.22 -77.59,-1.52 -121.88,-0.07 -109.04,3.57 -168.52,-30.64 -72.26,-124.01 -4.74,-85.89 -97.85,-293.46 -133.33,-362l-295.32 -4.55c-22.63,75.94 -75.36,165.35 -107.94,242.56 -77.96,184.76 81.28,81.03 37.48,231.59 -58.36,31.49 -208.76,21.61 -286.4,13.54l2.73 10.92c733.05,338.54 1467.63,507.62 2394.71,401.19 852.26,-97.83 1695.89,-496.92 2234.58,-965.44l183.95 -167.15c225.74,-201.49 493.4,-523.19 654.43,-776.33 90.33,-141.99 176.2,-281.4 257.89,-444.36 335.62,-669.49 513.52,-1500.41 425.86,-2361.48 -41.45,-407.2 -141.69,-797.86 -282.58,-1146.71 -115.05,-284.86 -210.43,-458.43 -361.14,-705.79 -24.75,-40.62 -48.08,-73.1 -72.86,-108.46l-144.95 -207.29c-151.69,-211.24 -494.55,-548.74 -700.95,-716.98l-304.97 -228.08c-770.75,-526.11 -1751.77,-809.05 -2780.23,-721.71 -563.26,47.84 -1162.29,222.2 -1644.94,486.48 -104.85,57.41 -372.32,204.55 -430.02,271.06z"/>
  <path class="fil1" d="M5182.44 550.48c1011.5,-77.19 2145.37,301.69 2913.23,913.39l294.46 251.1c182.02,157.4 365.43,370.32 522.85,579.96 917.7,1222.12 1140.74,2840.86 560.53,4283.48 -147.96,367.88 -460.51,907.98 -728.69,1197.93l-262.52 283.19c-119.25,119.66 -304.37,280.57 -443.03,381.14 -1255.77,910.81 -2806.52,1147.17 -4278.45,557.98 -494.04,-197.77 -812.81,-415.92 -1201.2,-726.77 -233.04,-186.51 -481.91,-475.48 -662.81,-706.09 -505.41,-644.32 -829.25,-1542.34 -872.19,-2415.98 -89.31,-1817.09 947.92,-3420.87 2417.61,-4142.86 552.6,-271.47 1031.82,-402.42 1740.21,-456.47zm4866.35 4514.83c35.6,-691.57 -126.98,-1381.43 -363.14,-1955.08 -106.1,-257.69 -263.81,-554.17 -405.38,-758.67 -304.48,-439.83 -691.95,-885.89 -1136.88,-1189.97 -328.72,-224.66 -363.05,-252.01 -727.64,-436.43 -526.08,-266.11 -1196.25,-438.37 -1866.97,-460.12 -2628.32,-85.26 -4732.38,1984.67 -4812.19,4509.34 -79.47,2513.81 1882.38,4728.97 4520.78,4803.32 1021.51,28.79 1906.81,-254.77 2709.01,-773.27 296,-191.32 406.27,-308.65 647.76,-516.27 58.97,-50.7 90.91,-91.86 145.09,-145.65l270.19 -311.54c636.67,-791.49 964.38,-1697.58 1019.37,-2765.66z"/>
  <path class="fil2" d="M5804.05 3213.91c159.86,0 1059.67,-11.22 1140.67,7.34 636.08,145.71 667.98,1123.47 -21.07,1279.71 -141.82,32.16 -915.58,15.96 -1123.28,15.96l3.68 -1303.01zm1936.06 1788.61c5.45,-16.35 -36.93,-17.32 26.16,-14.29 133.69,-51.13 446.28,-443.39 535.43,-623.78 139.56,-282.36 188.86,-638.13 102.86,-979.68 -137.46,-545.94 -635.03,-1040.13 -1294.09,-1045.96 -58.44,19.03 -1275.47,14.71 -1432.03,11.07 -91.12,292.85 -434.32,695.2 -656.52,879.26 -136.06,112.71 -282.49,165.33 -314.81,199.91 7.73,142 17.32,108 17.32,315.13 0,102.23 4.45,214.78 -0.49,315.75 -4.05,82.68 -20.87,65.92 22.71,122.2 240.92,311.2 539.78,581.82 932.97,764.89 573.94,267.21 1217.46,328.26 1836.58,135.66l223.91 -80.16z"/>
  <path class="fil1" d="M3395.43 4478.67c37.47,-149.48 177.31,-267.36 304.02,-329.7 135.49,-66.67 333.03,-70.05 479.87,-29.94l65.01 26.28c-304.19,23.2 -682.54,181.13 -848.9,333.36zm658.34 -819.5l-9.73 3.61c-23.92,4.81 -17.95,9.71 -17.95,-14.66 -72.44,-47.48 -413.24,-147.85 -517.13,-179.17 -256.77,-77.39 -333.74,-72.92 -615.07,-77.45 -33.56,20.27 -20.71,3.72 -45.43,-1.26l45.26 -12.7c84.61,-2.49 215.6,-56.62 315.86,-69.36 121.63,-15.47 248.5,0.4 356.2,30.45 274.89,76.67 317.54,170.17 479.18,294.81 36.17,22.75 31.5,23.41 52.49,54.76l-43.68 -29.03zm84.08 -730.04c-105.34,-70.32 -176.77,-184.3 -236.93,-288.68 -113.12,-196.26 -207.14,-299.56 -332.66,-454.87l-261.89 -259.14c-45.55,-38.45 -87.72,-85.68 -129.16,-118.09 199.22,33.19 511.73,334.11 604.18,442.8 244.67,287.64 210.7,322.81 356.46,677.98zm1240.94 -1063.85l-12.13 12.12 -12.12 12.13 -12.12 12.11 -12.12 12.13 -12.12 12.12 -11.48 13.15c0.57,17.65 4.94,13.4 -12.44,13.4 -224.17,232.93 -813.31,1120.79 -621.32,1455.18 55.72,97.04 34.53,554.12 31.82,692.33 -43.61,-33.1 -61.62,-74.88 -91.1,-123.58 -238.43,-393.97 -210.24,-764.97 -39.6,-1194.83 121.91,-307.13 522.77,-816.1 779.99,-915.88l12.83 -12.66 12.43 -0.8 24.16 -8.69 -24.68 21.77zm-2420.44 -459.16c-101.01,398.56 8.23,891.64 213.02,1163.82 112.69,149.78 199.76,220.91 412.04,315.3 98.6,43.84 168.82,59.74 288.4,75.73 135.11,18.08 179.09,50.32 276.97,86.24 -7.37,246.95 -21.26,383.7 8.77,633.6 35.32,63.6 5.33,14.93 -2.95,26.6 -41.46,-17.56 -12.47,5.23 -29.31,-32.67 -103.15,-324.61 -379.2,-644.27 -728.68,-711.46 -244.52,-47.01 -384.87,9.98 -566.34,110.98 -139.4,77.59 -318.61,219.37 -402.89,318.42 90.79,100.32 161.26,190.4 307.79,268.31 323.01,171.76 583.73,231.09 958.22,118.59 126.99,-38.15 370.06,-138.86 476.67,-21.75 1.24,2.52 2.63,3.84 3.04,7.87l22.96 82.82c8.36,31.49 16.73,61.48 27.32,93.72 21.54,65.55 49.45,121.65 65.95,186.88 -135.81,-43.45 -182.95,-153.57 -335.38,-208.43 -142.52,-51.3 -344.44,-13.99 -458.55,49.25 -216.99,120.25 -380.82,443.67 -396.28,683.28 249.36,134.76 803.36,-97.71 963.01,-298.73 34.47,-43.4 66.15,-73.87 98.62,-119.98 31.52,-44.77 78.22,-82.53 159.03,-72.8 50.53,95.71 197.78,311.71 279.88,398.27 30.65,32.32 91.96,92.6 102.17,131.1 16.08,60.65 4.86,2610.04 4.01,2794.3l18.59 1.09 0 -2798.12c70.03,92.87 525.14,322.79 661.35,381.57 220.94,95.35 573.63,204.65 841.36,225.96l-33.27 7.33c77.88,51.37 773.49,18.89 898.36,-4.71 166.23,-31.43 370.89,-108.63 509.74,-192.58 40.52,-24.5 122.99,-62.78 138.14,-103.4 40.04,2.91 17.31,6.59 26.16,-14.29 -63.09,-3.03 -20.71,-2.06 -26.16,14.29l-223.91 80.16c-619.12,192.6 -1262.64,131.55 -1836.58,-135.66 -393.19,-183.07 -692.05,-453.69 -932.97,-764.89 -43.58,-56.28 -26.76,-39.52 -22.71,-122.2 4.94,-100.97 0.49,-213.52 0.49,-315.75 0,-207.13 -9.59,-173.13 -17.32,-315.13 32.32,-34.58 178.75,-87.2 314.81,-199.91 222.2,-184.06 565.4,-586.41 656.52,-879.26 156.56,3.64 1373.59,7.96 1432.03,-11.07l-1418.45 1.74c29.75,-119.35 102.17,-249.59 158.99,-499.45 47.74,-209.97 56.16,-383.59 35.8,-604.62 -372.01,36.01 -1017.83,502.67 -1258.49,774.88l-179.11 233.21c-106.06,158.29 -194.4,364.58 -252.06,562.82 -28.9,-195.76 168.81,-516.88 -304.42,-994.91 -105.77,-106.84 -217.9,-202 -381.13,-285 -205.59,-104.53 -305.14,-106.84 -553.25,-121.36z"/>
  <path class="fil3" d="M4724.43 7486.47c75.74,37.69 71.55,61.15 49.1,150.98 81.46,110.01 164.14,162.32 362.7,165.34 21.17,-56.89 40.44,-130.59 57.42,-195.94 23.83,-91.78 20.88,-155.07 116.4,-153.04 68.66,85.09 68.15,246.89 125.6,353.7 132.09,-18.42 251.9,-86.02 298.25,-168.08 -49.83,-121.52 -16.31,-115.44 58.96,-164.48l4.38 -2174.69c104.09,-28.26 282.11,27.56 396.63,2.95l33.27 -7.33c-267.73,-21.31 -620.42,-130.61 -841.36,-225.96 -136.21,-58.78 -591.32,-288.7 -661.35,-381.57l0 2798.12z"/>
  <path class="fil4" d="M3529.57 8797.17l-15.29 -10.84 -8.95 -1.28 -15.67 -12.41c-148.68,-49 -526.31,-299.49 -671.41,-407.45 -71.08,-52.88 -132.8,-112.56 -200.2,-163.18 -211.83,-159.09 -559.28,-553.67 -699.51,-754.6 -382.85,-548.58 -715.7,-1262.3 -791.8,-2104.54 -60.19,-666.15 21.98,-1286.96 244.71,-1897.31 226.89,-621.74 558.77,-1087.8 988.12,-1545.02l282.88 -262.64c58.51,-52.04 260,-213.35 315.9,-231.78 57.7,-66.51 325.17,-213.65 430.02,-271.06 482.65,-264.28 1081.68,-438.64 1644.94,-486.48 1028.46,-87.34 2009.48,195.6 2780.23,721.71l304.97 228.08c206.4,168.24 549.26,505.74 700.95,716.98l144.95 207.29c24.78,35.36 48.11,67.84 72.86,108.46 150.71,247.36 246.09,420.93 361.14,705.79 140.89,348.85 241.13,739.51 282.58,1146.71 87.66,861.07 -90.24,1691.99 -425.86,2361.48 -81.69,162.96 -167.56,302.37 -257.89,444.36 -161.03,253.14 -428.69,574.84 -654.43,776.33l-183.95 167.15c-538.69,468.52 -1382.32,867.61 -2234.58,965.44 -927.08,106.43 -1661.66,-62.65 -2394.71,-401.19zm1652.87 -8246.69c-708.39,54.05 -1187.61,185 -1740.21,456.47 -1469.69,721.99 -2506.92,2325.77 -2417.61,4142.86 42.94,873.64 366.78,1771.66 872.19,2415.98 180.9,230.61 429.77,519.58 662.81,706.09 388.39,310.85 707.16,529 1201.2,726.77 1471.93,589.19 3022.68,352.83 4278.45,-557.98 138.66,-100.57 323.78,-261.48 443.03,-381.14l262.52 -283.19c268.18,-289.95 580.73,-830.05 728.69,-1197.93 580.21,-1442.62 357.17,-3061.36 -560.53,-4283.48 -157.42,-209.64 -340.83,-422.56 -522.85,-579.96l-294.46 -251.1c-767.86,-611.7 -1901.73,-990.58 -2913.23,-913.39z"/>
  <path class="fil0" d="M5800.37 4516.92c207.7,0 981.46,16.2 1123.28,-15.96 689.05,-156.24 657.15,-1134 21.07,-1279.71 -81,-18.56 -980.81,-7.34 -1140.67,-7.34l-3.68 1303.01z"/>
  <path class="fil5" d="M5282.03 7528.94c27.17,22.97 17.74,14.53 29.99,63.14l59.54 208.32c48.82,135.85 144.13,539.7 193.22,717.37 11.77,42.58 29.28,85.59 35.76,138.18 33.41,-58.35 63.71,-195.37 85.67,-275.44 27.07,-98.68 51.69,-182.09 79.01,-271.96 25.14,-82.68 103.62,-367.78 78.52,-442.81 -5.87,-17.51 -26.55,-36.55 -36.46,-46.74 -34.54,-35.56 -25.03,4.95 -33.99,-61.44l276.66 0.25c-15.61,67.54 -63.66,84.53 -98.99,161.71 -70.41,153.79 -124.66,379.67 -174.38,552.31l-232.22 764.59c-20.39,-111.22 -45.55,-192.36 -73.91,-294.96 -61.59,-222.77 -173.89,-692.1 -232.66,-857.9 -6.32,34.96 -12.15,51.85 -21.4,83.9l-301.05 1046.06c-27.72,-35.72 -312.29,-996.56 -351.01,-1123.34 -23.94,-78.41 -56.73,-199.47 -104.69,-257.9 -40.62,-49.48 -36.82,-12.09 -54.62,-71.01l331.78 0.68c-20.82,72.72 -54.82,18.69 -59.14,120.83 -5,118.67 146.56,533.64 196.94,700.34 20.36,67.36 53.42,205.16 85.99,266.9l321.44 -1121.08zm-145.8 273.85c-49.31,205.29 -118.49,447.4 -185.22,641.88 -26.52,-55.89 -38.87,-127.51 -60,-188.48 -55.41,-159.9 -165.51,-439.18 -166.52,-588.71 21.48,-9.14 32.69,-17.22 49.04,-30.03 22.45,-89.83 26.64,-113.29 -49.1,-150.98l-18.59 -1.09c-60.42,3.4 -274.31,-6.36 -311.09,13.68 -106.12,57.8 27.18,171.49 44.51,202.34 37.39,66.55 122.5,381.71 151.46,479.3l220.89 724.57c33.09,104.23 17.4,197.69 134.88,184.09 46.74,-25.89 229.61,-830.36 295.19,-967.8l203.07 745c127.7,511.51 211.51,41.33 282.33,-216.87 42.89,-156.35 228.21,-850.25 295.67,-940.44 27.22,-36.39 139,-136.31 55.98,-204.33 -51.04,-41.83 -212.32,-3.16 -285.87,-29.97 -75.27,49.04 -108.79,42.96 -58.96,164.48 80.84,62.03 68.91,55.91 46.22,189.47 -17.33,101.96 -145.94,531.16 -178.83,616.9l-165.64 -638.29c-57.45,-106.81 -56.94,-268.61 -125.6,-353.7 -95.52,-2.03 -92.57,61.26 -116.4,153.04 -16.98,65.35 -36.25,139.05 -57.42,195.94z"/>
  <path class="fil6" d="M4960.59 8650.02c-32.57,-61.74 -65.63,-199.54 -85.99,-266.9 -50.38,-166.7 -201.94,-581.67 -196.94,-700.34 4.32,-102.14 38.32,-48.11 59.14,-120.83l-331.78 -0.68c17.8,58.92 14,21.53 54.62,71.01 47.96,58.43 80.75,179.49 104.69,257.9 38.72,126.78 323.29,1087.62 351.01,1123.34l301.05 -1046.06c9.25,-32.05 15.08,-48.94 21.4,-83.9 58.77,165.8 171.07,635.13 232.66,857.9 28.36,102.6 53.52,183.74 73.91,294.96l232.22 -764.59c49.72,-172.64 103.97,-398.52 174.38,-552.31 35.33,-77.18 83.38,-94.17 98.99,-161.71l-276.66 -0.25c8.96,66.39 -0.55,25.88 33.99,61.44 9.91,10.19 30.59,29.23 36.46,46.74 25.1,75.03 -53.38,360.13 -78.52,442.81 -27.32,89.87 -51.94,173.28 -79.01,271.96 -21.96,80.07 -52.26,217.09 -85.67,275.44 -6.48,-52.59 -23.99,-95.6 -35.76,-138.18 -49.09,-177.67 -144.4,-581.52 -193.22,-717.37l-59.54 -208.32c-12.25,-48.61 -2.82,-40.17 -29.99,-63.14l-321.44 1121.08z"/>
  <path class="fil0" d="M5354.05 1865.66c-257.22,99.78 -658.08,608.75 -779.99,915.88 -170.64,429.86 -198.83,800.86 39.6,1194.83 29.48,48.7 47.49,90.48 91.1,123.58 2.71,-138.21 23.9,-595.29 -31.82,-692.33 -191.99,-334.39 397.15,-1222.25 621.32,-1455.18l12.44 -13.4 11.48 -13.15 12.12 -12.12 12.12 -12.13 12.12 -12.11 12.12 -12.13 12.13 -12.12 0.52 -13.08 -12.43 0.8 -12.83 12.66z"/>
  <path class="fil6" d="M7124.35 7452.43c54.74,-19.99 229.96,-11.5 303.01,-11.5 49.78,0 202.05,74.06 172.18,234.99 -38.11,205.35 -296.43,188.27 -472.36,174.05l-2.83 -397.54zm-178.85 -44.89c44.57,80.36 64.58,21.49 64.58,178.84 0,184.56 32.55,639.81 -53.39,766.75 -15.74,23.24 -1.96,-9.52 -25.97,38.77l271.63 -0.29c-25.52,-59.99 -33.84,-25.96 -58.41,-95.13 -28.76,-80.99 -11.31,-292.04 -19.59,-403.38 92.72,4.92 197.04,-12.89 276.34,12.09 135.18,42.6 165.13,237.83 204.21,374.27 36.62,127.84 57.5,118.24 225.61,110.04 -27.68,-62.65 -58.59,-50.73 -89.88,-131.37 -47.56,-122.57 -46.43,-236.88 -133.96,-306.93 -39.69,-31.76 -77.96,-51.71 -133.79,-68.65 119.46,-18.75 217.78,-60.72 250.55,-148.44 20.71,-55.47 27.91,-111.99 12.01,-162.86 -52.42,-167.66 -258.69,-172.18 -417.16,-172.07 -91.57,0.06 -295.63,-12.58 -372.78,8.36z"/>
  <path class="fil6" d="M4040.32 7886.49c20.63,61.4 38.59,91.25 68,155.22 17.14,37.26 25.95,59.35 37.9,87.4l39.78 66.53 -306.57 5.08 160.89 -314.23zm-508.83 856.53l254.26 -4.96c-41.57,-72.27 -121.68,-27.05 -36.62,-239.52l107.98 -240.25 343.29 -5.18 127.73 296.63c8.14,17.44 19.48,43.07 24.12,61.87 24.58,99.76 -19.22,63.54 -45.01,127.99l301.87 -0.63c-18.19,-35.85 0.64,-1.57 -23.14,-32.08l-221.71 -408.54c-8.77,-19.15 -17.21,-34.31 -29.92,-64.51l-245.71 -534.54c-1.38,-1.77 -4.19,-5.1 -6.53,-7.42 -90.29,107.6 -324.17,702.2 -462.73,923.94 -30.31,48.5 -56.49,74.5 -87.88,127.2z"/>
  <path class="fil6" d="M6196.37 8199.14c46.17,-66.02 95.84,-220.81 152.27,-304.72l142.39 304.83 -294.66 -0.11zm-341.8 547.94l230.15 3.33c3.81,-34.59 -18.4,-40.96 -27.85,-48.59 -25.39,-20.48 -25.52,-3.82 -31.4,-49.98 -10.5,-82.34 106.33,-316.43 146.55,-393.02l322.06 -0.53c43.22,7.23 178.73,369.26 181.82,424.66 -27.24,17.78 -52.33,35.08 -51.24,55.29 38.65,21.95 260.52,11.02 288.13,6.2 -6.85,-41.07 -51.26,-59.38 -111.15,-167.59 -74.02,-133.73 -196.61,-448.18 -275.32,-607.95 -41,-83.24 -77.77,-205.33 -129.2,-274.12l-41.71 55.8c-11.28,20.99 -19.05,38 -32.13,64.25 -93.17,187.07 -310.3,676.43 -395.29,806.19 -26.04,39.76 -72.64,73.05 -73.42,126.06z"/>
  <path class="fil6" d="M3242.74 7444.11l184.86 0c240.49,0 311.1,162.45 247.1,304.17 -82.73,183.19 -381.09,123.75 -437.17,128.99 -2.22,-125.21 -13.62,-251.76 5.21,-375.73l0 -57.43zm-173.9 -46.8c42.79,106.88 53.13,-17.77 52.59,225.42 -0.29,130.17 -0.43,580.6 -33.31,678.86 -16.49,49.31 -19.94,47.51 -63.58,64.56 46.35,46.05 244.19,33.38 255.6,30.5 37.33,-9.44 2.46,8.54 27.73,-15.17 -0.83,-7.3 -44.15,-33.13 -58.92,-58.28 -33.96,-57.85 -13.27,-308.58 -13.27,-394.27 161.23,0 298.73,5.11 429.41,-44.68 189.81,-72.32 309.02,-399.11 -135.07,-486.19 -83.07,-16.29 -376.07,-15.14 -461.18,-0.75z"/>
  <path class="fil5" d="M5854.57 8747.08c0.78,-53.01 47.38,-86.3 73.42,-126.06 84.99,-129.76 302.12,-619.12 395.29,-806.19 13.08,-26.25 20.85,-43.26 32.13,-64.25l41.71 -55.8c51.43,68.79 88.2,190.88 129.2,274.12 78.71,159.77 201.3,474.22 275.32,607.95 59.89,108.21 104.3,126.52 111.15,167.59 -27.61,4.82 -249.48,15.75 -288.13,-6.2 -1.09,-20.21 24,-37.51 51.24,-55.29 -3.09,-55.4 -138.6,-417.43 -181.82,-424.66l-322.06 0.53c-40.22,76.59 -157.05,310.68 -146.55,393.02 5.88,46.16 6.01,29.5 31.4,49.98 9.45,7.63 31.66,14 27.85,48.59l-230.15 -3.33zm-39.27 28.68c57.79,30.95 115.76,19.45 194.5,20.13 91.97,0.8 127.9,3.59 119.92,-98.19 -35.54,-28.86 -109.67,-28.29 -22.29,-201.48 121.07,-239.95 14.56,-196.31 380.61,-190.11 33.39,53.41 73.94,161.44 101.18,227.27 12.23,29.58 40.55,98.15 31.3,127.23 -11.86,37.31 -64.28,52.11 -29.12,113.58 37.32,26.46 498.17,60.04 349.33,-94.14 -54.1,-56.04 -59.03,-24.77 -118.08,-149.48l-328.5 -738.21c-32.95,-75.48 -42,-142.56 -125.01,-143.11 -63.53,25.36 -354.7,806.45 -500.63,983.88 -38.6,46.93 -78.71,61.64 -53.21,142.63z"/>
  <path class="fil5" d="M6945.5 7407.54c77.15,-20.94 281.21,-8.3 372.78,-8.36 158.47,-0.11 364.74,4.41 417.16,172.07 15.9,50.87 8.7,107.39 -12.01,162.86 -32.77,87.72 -131.09,129.69 -250.55,148.44 55.83,16.94 94.1,36.89 133.79,68.65 87.53,70.05 86.4,184.36 133.96,306.93 31.29,80.64 62.2,68.72 89.88,131.37 -168.11,8.2 -188.99,17.8 -225.61,-110.04 -39.08,-136.44 -69.03,-331.67 -204.21,-374.27 -79.3,-24.98 -183.62,-7.17 -276.34,-12.09 8.28,111.34 -9.17,322.39 19.59,403.38 24.57,69.17 32.89,35.14 58.41,95.13l-271.63 0.29c24.01,-48.29 10.23,-15.53 25.97,-38.77 85.94,-126.94 53.39,-582.19 53.39,-766.75 0,-157.35 -20.01,-98.48 -64.58,-178.84zm30.39 154.6c0,128.91 13.84,612.81 -22.01,713.71 -27.71,78 -80.35,48.98 -47.73,146.88 56.88,3.87 285.47,21.01 315.17,-1.52 54.28,-70.03 -10.26,-87.3 -33.89,-122.07 -32.4,-47.68 -19.38,-282.43 -17.71,-358.29 77.9,0.04 185.97,-10.85 251.44,15.16 93.54,37.15 117.16,242.19 159.69,373.85 31.8,98.43 62.96,102.02 173.77,102.02 59.97,0 144.78,-18.63 97.86,-93.49 -33.36,-53.23 -37.31,19.71 -89.95,-141.64 -27.18,-83.33 -46.78,-171.22 -99.8,-239.19l-40.48 -46.5c-14.29,-18 -3.9,-0.9 -17.6,-24.6 255.31,-76.99 271.42,-533.33 -201.53,-533.33l-399.97 0c-52.51,0 -110.56,19.28 -90.34,81.01 24.33,74.25 63.08,-13.11 63.08,128z"/>
  <path class="fil5" d="M3531.49 8743.02c31.39,-52.7 57.57,-78.7 87.88,-127.2 138.56,-221.74 372.44,-816.34 462.73,-923.94 2.34,2.32 5.15,5.65 6.53,7.42l245.71 534.54c12.71,30.2 21.15,45.36 29.92,64.51l221.71 408.54c23.78,30.51 4.95,-3.77 23.14,32.08l-301.87 0.63c25.79,-64.45 69.59,-28.23 45.01,-127.99 -4.64,-18.8 -15.98,-44.43 -24.12,-61.87l-127.73 -296.63 -343.29 5.18 -107.98 240.25c-85.06,212.47 -4.95,167.25 36.62,239.52l-254.26 4.96zm-29.94 20.46l25.29 22.77c77.64,8.07 228.04,17.95 286.4,-13.54 43.8,-150.56 -115.44,-46.83 -37.48,-231.59 32.58,-77.21 85.31,-166.62 107.94,-242.56l295.32 4.55c35.48,68.54 128.59,276.11 133.33,362 -96.26,93.37 -36.78,127.58 72.26,124.01 44.29,-1.45 77.7,-1.15 121.88,0.07 50.63,1.39 181.79,2.2 136.53,-89.37 -11.94,-24.15 -37.8,-34.41 -57.19,-53.65 -74.76,-74.21 -365.25,-775.85 -421.81,-899.53 -99.22,-216.92 -143.58,-58.07 -201.45,72.29 -57.12,128.68 -323.23,707.23 -390.32,796.79 -43.21,57.7 -90.77,67.46 -70.7,147.76z"/>
  <path class="fil0" d="M5136.23 7802.79c-198.56,-3.02 -281.24,-55.33 -362.7,-165.34 -16.35,12.81 -27.56,20.89 -49.04,30.03 1.01,149.53 111.11,428.81 166.52,588.71 21.13,60.97 33.48,132.59 60,188.48 66.73,-194.48 135.91,-436.59 185.22,-641.88z"/>
  <path class="fil5" d="M3068.84 7397.31c85.11,-14.39 378.11,-15.54 461.18,0.75 444.09,87.08 324.88,413.87 135.07,486.19 -130.68,49.79 -268.18,44.68 -429.41,44.68 0,85.69 -20.69,336.42 13.27,394.27 14.77,25.15 58.09,50.98 58.92,58.28 -25.27,23.71 9.6,5.73 -27.73,15.17 -11.41,2.88 -209.25,15.55 -255.6,-30.5 43.64,-17.05 47.09,-15.25 63.58,-64.56 32.88,-98.26 33.02,-548.69 33.31,-678.86 0.54,-243.19 -9.8,-118.54 -52.59,-225.42zm19.38 140.59l-7.83 545.43c-14.7,399.39 -135.88,150.71 -80.79,343.89 0.65,0.25 376.11,78.61 343.48,-62.43 -11.04,-47.77 -15.76,-23.47 -48.21,-51.53 -57.26,-49.49 -33.36,-256.65 -30.27,-332.92 172.01,-7.73 427.1,-0.19 539.44,-138.61 98.41,-121.25 72.16,-298.16 -31.24,-394.61 -101.4,-94.58 -269.28,-97.54 -429.91,-100.45 -123.72,-2.24 -358,-46.64 -297.88,86.52 19.82,43.89 43.21,15.71 43.21,104.71z"/>
  <path class="fil0" d="M5435.65 7807.51l165.64 638.29c32.89,-85.74 161.5,-514.94 178.83,-616.9 22.69,-133.56 34.62,-127.44 -46.22,-189.47 -46.35,82.06 -166.16,149.66 -298.25,168.08z"/>
  <path class="fil0" d="M4137.85 2929.13c-145.76,-355.17 -111.79,-390.34 -356.46,-677.98 -92.45,-108.69 -404.96,-409.61 -604.18,-442.8 41.44,32.41 83.61,79.64 129.16,118.09l261.89 259.14c125.52,155.31 219.54,258.61 332.66,454.87 60.16,104.38 131.59,218.36 236.93,288.68z"/>
  <path class="fil0" d="M3269.6 7829.54c147.72,9.64 343.02,22.55 379.78,-119.18 50.91,-196.28 -116.2,-223.88 -282.39,-223.88l-36.36 0 -57.75 4.3 -3.28 338.76z"/>
  <path class="fil0" d="M2893.72 3377.54l0.17 13.96c281.33,4.53 358.3,0.06 615.07,77.45 103.89,31.32 444.69,131.69 517.13,179.17 23.23,0.43 18.21,6.7 18.87,-14.68 -161.64,-124.64 -204.29,-218.14 -479.18,-294.81 -107.7,-30.05 -234.57,-45.92 -356.2,-30.45 -100.26,12.74 -231.25,66.87 -315.86,69.36zm1160.05 281.63c-4.98,-14.71 3.98,-20.22 -9.73,3.61l9.73 -3.61z"/>
  <path class="fil0" d="M7169.37 7798.48c162.44,0.01 388.56,33.72 394.63,-151.44 6.45,-197.13 -232.47,-151.48 -397.14,-151.48l2.51 302.92z"/>
  <path class="fil0" d="M3395.43 4478.67c166.36,-152.23 544.71,-310.16 848.9,-333.36l-65.01 -26.28c-146.84,-40.11 -344.38,-36.73 -479.87,29.94 -126.71,62.34 -266.55,180.22 -304.02,329.7z"/>
  <path class="fil5" d="M7166.86 7495.56c164.67,0 403.59,-45.65 397.14,151.48 -6.07,185.16 -232.19,151.45 -394.63,151.44l-2.51 -302.92zm-42.51 -43.13l2.83 397.54c175.93,14.22 434.25,31.3 472.36,-174.05 29.87,-160.93 -122.4,-234.99 -172.18,-234.99 -73.05,0 -248.27,-8.49 -303.01,11.5z"/>
  <path class="fil5" d="M3272.88 7490.78l57.75 -4.3 36.36 0c166.19,0 333.3,27.6 282.39,223.88 -36.76,141.73 -232.06,128.82 -379.78,119.18l3.28 -338.76zm-30.14 10.76c-18.83,123.97 -7.43,250.52 -5.21,375.73 56.08,-5.24 354.44,54.2 437.17,-128.99 64,-141.72 -6.61,-304.17 -247.1,-304.17l-184.86 0 0 57.43z"/>
  <path class="fil5" d="M4042.97 7978.03l66.34 176.21 -150.93 -9.3 84.59 -166.91zm-163.54 222.69l306.57 -5.08 -39.78 -66.53c-11.95,-28.05 -20.76,-50.14 -37.9,-87.4 -29.41,-63.97 -47.37,-93.82 -68,-155.22l-160.89 314.23z"/>
  <path class="fil5" d="M6279.68 8150.02c1.06,-42.74 49.08,-127.97 66.75,-165.12 10.71,11.98 1.17,-3.61 17.43,22.28l61.95 149.92 -146.13 -7.08zm-83.31 49.12l294.66 0.11 -142.39 -304.83c-56.43,83.91 -106.1,238.7 -152.27,304.72z"/>
  <path class="fil0" d="M6279.68 8150.02l146.13 7.08 -61.95 -149.92c-16.26,-25.89 -6.72,-10.3 -17.43,-22.28 -17.67,37.15 -65.69,122.38 -66.75,165.12z"/>
  <polygon class="fil0" points="3958.38,8144.94 4109.31,8154.24 4042.97,7978.03 "/>
  <path class="fil7" d="M4026.09 3648.12c0,24.37 -5.97,19.47 17.95,14.66 13.71,-23.83 4.75,-18.32 9.73,-3.61l43.68 29.03c-20.99,-31.35 -16.32,-32.01 -52.49,-54.76 -0.66,21.38 4.36,15.11 -18.87,14.68z"/>
  <path class="fil7" d="M4157.55 3680.81c-35.28,-0.01 -10.11,11.82 -32.26,-6.07 16.84,37.9 -12.15,15.11 29.31,32.67 8.28,-11.67 38.27,37 2.95,-26.6z"/>
  <path class="fil7" d="M2893.89 3391.5l-0.17 -13.96 -45.26 12.7c24.72,4.98 11.87,21.53 45.43,1.26z"/>
  <path class="fil8" d="M3514.28 8786.33l15.29 10.84 -2.73 -10.92 -25.29 -22.77 12.73 22.85zm-8.95 -1.28c-1.74,-17.6 2.93,-12.82 -15.67,-12.41l15.67 12.41z"/>
  <path class="fil8" d="M5378.79 1865.28l-12.13 12.12 -12.12 12.13 -12.12 12.11 -12.12 12.13 -12.12 12.12 -11.48 13.15 -12.44 13.4c17.38,0 13.01,4.25 12.44,-13.4l11.48 -13.15 12.12 -12.12 12.12 -12.13 12.12 -12.11 12.12 -12.13 12.13 -12.12 24.68 -21.77 -24.16 8.69 -0.52 13.08zm-24.74 0.38l12.83 -12.66 -12.83 12.66z"/>
 </g>
</svg>
